<mxfile host="app.diagrams.net" modified="2024-03-04T16:17:00.188Z" agent="Mozilla/5.0 (Linux; Android 10; K) AppleWebKit/537.36 (KHTML, like Gecko) Chrome/122.0.0.0 Mobile Safari/537.36" version="24.0.1" etag="hfxQEdvCHdMfXnzTKNUX" type="github">
  <diagram name="PÃ¡gina-1" id="3aOztfEazQevvZAka83j">
    <mxGraphModel>
      <root>
        <mxCell id="0" />
        <mxCell id="1" parent="0" />
      </root>
    </mxGraphModel>
  </diagram>
</mxfile>
